<?xml version="1.0" encoding="UTF-8"?>
<svg id="Ebene_1" data-name="Ebene 1" xmlns="http://www.w3.org/2000/svg" viewBox="0 0 54.33 68">
  <path d="M54.33,0V35.35c0,21.52-23.75,32.52-27.1,32.65-3.04,.06-27.23-9.59-27.23-32.65V0H54.33Z" style="fill: #1d1d1b;"/>
  <path d="M53.96,.37H.37V35.35c0,22.79,23.96,32.34,26.85,32.28,3.21-.13,26.74-11.02,26.74-32.28V.37h0Z" style="fill: #fff;"/>
  <path d="M31.32,47.36s.43,.9,.73,1.54c.35,.75,.94,1.38,.81,2.01-.09,.42-1.06,.53-1.56,.53s-1.08,0-1.42,.08c-.35,.08-.79,.57-.71,1.18,.1,.83,.63,1.49,.63,1.32,0-.38,.04-.63,.22-.84,.18-.2,.41-.2,.75-.14,.79,.15,1.79-.33,1.97-.61,.18-.28,.15-.3,.32-.45,.36-.31,.19,.38,1.07,.35,.28,0,.28-.1,.45-.08,.18,.03,.29,.33,.26,.78-.03,.43-.07,.73,.09,1.1,.16,.38,.27,.63,.3,.73,.12,.36-.15,.65-.3,.68-.15,.03-.43,0-.18,.13,.25,.13,.92,.27,1.28,0,.17-.13,.13-.07,.4-.13,.31-.06,.69-.87,.44-1.46-.29-.68-.84-1.64-1.4-2.09-.15-.12-.35-.23-.12-.35,.23-.13,.15-.28,.45-.1,.3,.18,.84,.44,1.19,.63,.53,.29,1.86,.43,1.98,.37,.13-.05,.31-.22,.51,.06,.2,.28,.25,.95,.35,.95,.2,.01,.62-1.15,0-1.79-.09-.09,.11-.26,0-.51-.27-.61-1.46-.67-1.97-.67s-.91,0-1.21,.05c-.3,.05-.38,.13-.56,.05-.18-.08-.26-.14-.2-.35,.08-.29,.76-1.08,.9-1.21,.15-.13,.09-.02,.4-.18,.33-.16,.43-.43,.3-.6-.13-.18-.15-.35,.05-.48,.33-.2,.8,.02,1.1,.32,.04,.04,.08-.94-.73-1.14-.48-.12-.7-.12-.83,.05-.11,.15-.32,.15-.43,.01-.11-.13-.38-.1-.54-.06-.76,.21-.95,2.34-1.05,2.54-.1,.2-.33,.31-.51,.29-.18-.03-.23-.14-.48-.61-.48-.89-.5-.99-.75-1.51-.25-.52-.56-1.16-.56-1.16" style="fill: #ffed00;"/>
  <path d="M38.58,48.01c-.04-.39-.25-.74-.67-.85-.49-.12-.64-.1-.73,.02-.28,.37-.49-.03-.77-.04-.09,0-.19,.01-.26,.04-.54,.15-.79,1.49-.88,2.01l-.06,.3-.02,.1c-.2,.41-.66,.57-.91,.24l-.12-.19-.16-.29c-.47-.88-.88-1.78-1.31-2.67l.17-.08c.43,.89,.85,1.79,1.31,2.66l.16,.29,.11,.17c.16,.22,.45,.07,.56-.13l.04-.13,.06-.29c.12-.61,.36-1.98,1.02-2.16,.19-.06,.49-.09,.64,.09,.07,.09,.21,.09,.29,0,.17-.23,.47-.2,.93-.09,.52,.13,.8,.59,.82,1.09v.12c-.02,.14-.15,.11-.18,.08-.3-.3-.72-.48-.99-.31-.13,.08-.13,.18-.02,.34,.18,.25,.01,.57-.34,.74l-.18,.08-.1,.03-.1,.06c-.14,.12-.8,.9-.87,1.16-.06,.21,.17,.29,.32,.25,.33-.07,.52-.11,.87-.12h.68c.6,0,1.77,.07,2.06,.72,.07,.16,.04,.29,0,.45,.6,.66,.3,2.02-.09,1.99l-.11-.08-.04-.1-.07-.27c-.05-.21-.11-.42-.2-.54-.08-.12-.15-.12-.19-.11l-.1,.03-.11,.05c-.16,.07-1.52-.08-2.06-.38-.35-.19-.88-.45-1.19-.63-.07-.04-.11-.06-.14-.07-.09,.08-.15,.13-.22,.17l.02,.11,.12,.09c.57,.47,1.13,1.45,1.42,2.13,.26,.61-.11,1.51-.51,1.59-.19,.04-.22,0-.37,.11-.4,.31-1.12,.14-1.38,0-.19-.12-.17-.25-.04-.28,.06-.01,.17-.01,.24-.03,.09-.02,.33-.25,.23-.56-.15-.44-.4-.81-.42-1.29,0-.18,0-.36,.02-.58,.03-.48-.1-.67-.18-.68-.18,.03-.13,.01-.26,.06-.45,.1-.77-.04-1.06-.37-.12,0-.24,.12-.27,.18l-.16,.28c-.2,.32-1.25,.8-2.07,.65-.34-.06-.53-.05-.66,.1-.15,.17-.2,.4-.2,.77,0,.05-.04,.14-.14,.12l-.11-.07c-.31-.3-.53-.96-.58-1.36-.08-.66,.39-1.19,.79-1.29,.36-.08,.95-.08,1.45-.08,.29,0,1.39-.07,1.47-.45,.12-.58-.55-1.43-.8-1.95l-.73-1.54,.17-.08,.73,1.54c.28,.58,.96,1.39,.81,2.07-.11,.52-1.25,.6-1.66,.6-.51,0-1.07,0-1.4,.08-.3,.07-.71,.51-.64,1.08,.05,.4,.2,.76,.34,1l.1,.16c.01-.3,.07-.53,.24-.72,.21-.24,.5-.23,.84-.17,.76,.14,1.72-.33,1.87-.56l.16-.27c.04-.07,.09-.12,.18-.2,.14-.12,.27-.15,.39,0,.22,.25,.35,.35,.73,.34l.15-.02,.19-.06s.08,0,.14,0c.27,.04,.37,.45,.34,.88-.02,.38-.07,.7,.08,1.06,.16,.38,.27,.64,.3,.74,.13,.41-.17,.77-.38,.8,.29,.1,.77,.16,1.03-.04,.19-.14,.22-.1,.44-.14,.22-.04,.6-.77,.37-1.33-.29-.67-.83-1.62-1.37-2.05-.16-.13-.45-.32-.11-.51,.06-.03,.1-.07,.14-.12,.15-.11,.26-.07,.4,.02,.3,.18,.84,.44,1.18,.63,.52,.28,1.81,.41,1.9,.37,.24-.12,.42-.19,.62,.09,.11,.16,.18,.41,.23,.61l.07,.26c.1-.17,.48-1-.09-1.58-.05-.05-.06-.11-.05-.16,.05-.18,.08-.27,.03-.38-.24-.55-1.38-.61-1.88-.61s-.9,0-1.19,.05c-.21,.03-.4,.13-.61,.04-.19-.08-.34-.19-.25-.47,.09-.31,.78-1.13,.94-1.25,.09-.07,.12-.08,.18-.1l.24-.09c.32-.16,.34-.36,.27-.46-.14-.2-.19-.44,.08-.61,.33-.21,.76-.04,1.07,.2h0Z" style="fill: #1d1d1b;"/>
  <path d="M29.16,52.58s.9-.86,1.51,.43" style="fill: #ffed00;"/>
  <path d="M29.1,52.51s.06-.06,.16-.13c.64-.41,1.17-.1,1.5,.58l-.17,.08c-.27-.58-.69-.85-1.23-.5-.08,.05-.14,.1-.14,.1l-.13-.14h0Z" style="fill: #1d1d1b;"/>
  <path d="M35.26,54.94s.14-.23,.36-.16c.22,.07,.57,.2,.6,.78" style="fill: #ffed00;"/>
  <path d="M35.18,54.89l.03-.04,.09-.09c.08-.06,.2-.11,.35-.07,.24,.07,.63,.23,.67,.86h-.19c-.03-.51-.33-.62-.54-.68-.07-.02-.13,0-.18,.04l-.07,.08-.16-.1h0Z" style="fill: #1d1d1b;"/>
  <path d="M38.93,52.51l-.07-.14c-.15-.35-.22-.86,.32-.94,.19-.03,.45,.06,.62,.15l-.09,.17s-.08-.04-.18-.08c-.58-.2-.7,.15-.5,.63l.06,.12-.17,.09h0Z" style="fill: #1d1d1b;"/>
  <path d="M36.93,47.25s-.31,.4,.02,.75c.17,.19,.38,.2,.45,.2" style="fill: #ffed00;"/>
  <path d="M37,47.3c-.26,.34-.02,.79,.4,.79v.19c-.55,0-.86-.55-.6-1.02l.05-.08,.15,.12h0Z" style="fill: #1d1d1b;"/>
  <path d="M23.08,47.36s-.43,.9-.73,1.54c-.35,.75-.94,1.38-.8,2.01,.09,.42,1.06,.53,1.57,.53s1.08,0,1.42,.08c.35,.08,.79,.57,.71,1.18-.1,.83-.64,1.49-.63,1.32,0-.38-.04-.63-.22-.84-.18-.2-.41-.2-.75-.14-.79,.15-1.79-.33-1.97-.61-.18-.28-.15-.3-.32-.45-.36-.31-.2,.38-1.07,.35-.28,0-.28-.1-.45-.08-.18,.03-.29,.33-.26,.78,.02,.43,.06,.73-.09,1.1-.15,.38-.27,.63-.3,.73-.12,.36,.15,.65,.3,.68,.15,.03,.43,0,.18,.13-.25,.13-.92,.27-1.28,0-.17-.13-.13-.07-.4-.13-.31-.06-.69-.87-.44-1.46,.29-.68,.84-1.64,1.39-2.09,.15-.12,.35-.23,.13-.35-.23-.13-.15-.28-.45-.1-.3,.18-.84,.44-1.18,.63-.53,.29-1.86,.43-1.99,.37-.12-.05-.31-.22-.51,.06-.2,.28-.25,.95-.35,.95-.2,.01-.62-1.15,0-1.79,.09-.09-.12-.26,0-.51,.27-.61,1.47-.67,1.97-.67s.91,0,1.21,.05c.3,.05,.38,.13,.55,.05,.18-.08,.26-.14,.2-.35-.09-.29-.76-1.08-.91-1.21-.15-.13-.09-.02-.4-.18-.33-.16-.43-.43-.3-.6,.12-.18,.15-.35-.05-.48-.33-.2-.8,.02-1.1,.32-.04,.04-.08-.94,.73-1.14,.48-.12,.7-.12,.83,.05,.11,.15,.32,.15,.43,.01,.11-.13,.38-.1,.55-.06,.76,.21,.95,2.34,1.05,2.54,.1,.2,.33,.31,.51,.29,.18-.03,.23-.14,.48-.61,.48-.89,.5-.99,.76-1.51,.25-.52,.56-1.16,.56-1.16" style="fill: #ffed00;"/>
  <path d="M24.7,53.85l.11-.16c.14-.24,.29-.6,.34-1,.07-.57-.34-1.01-.64-1.08-.33-.08-.89-.08-1.4-.08-.41,0-1.55-.08-1.66-.6-.14-.68,.54-1.49,.81-2.07l.73-1.54,.17,.08-.73,1.54c-.24,.52-.92,1.37-.8,1.95,.08,.38,1.18,.45,1.47,.45,.5,0,1.08,0,1.44,.08,.4,.09,.87,.63,.79,1.29-.05,.4-.27,1.05-.58,1.36-.08,.08-.25,.12-.25-.05,0-.37-.04-.6-.2-.77-.14-.16-.32-.17-.66-.1-.82,.15-1.86-.33-2.07-.65l-.16-.28c-.04-.06-.15-.18-.22-.21-.31,.33-.49,.44-.93,.43-.15,0-.23-.03-.3-.06l-.14-.02c-.08,.01-.21,.21-.18,.68,.02,.41,.06,.75-.1,1.15-.15,.37-.27,.63-.3,.72-.1,.31,.14,.54,.23,.56,.08,.01,.44,0,.35,.19l-.14,.11c-.26,.13-.98,.3-1.38,0-.15-.11-.17-.07-.36-.11-.4-.08-.77-.98-.51-1.59,.29-.68,.85-1.66,1.42-2.13l.12-.09,.02-.11c-.07-.04-.13-.09-.18-.15-.13,0-1.26,.62-1.36,.68-.54,.29-1.9,.45-2.07,.38l-.11-.05-.1-.03c-.24-.04-.36,.52-.39,.66l-.07,.27-.04,.1s-.05,.07-.11,.08c-.38,.03-.68-1.33-.07-1.95-.07-.2-.1-.32-.02-.49,.28-.65,1.46-.72,2.06-.72,.51,0,.92,0,1.23,.05,.15,.02,.36,.12,.5,.06,.16-.07,.19-.1,.15-.24-.08-.26-.73-1.04-.88-1.16l-.1-.06c-.33-.07-.91-.45-.62-.85,.11-.16,.11-.26-.02-.34-.27-.17-.69,.01-.99,.31-.03,.03-.15,.05-.17-.08v-.12c.02-.5,.3-.96,.82-1.09,.46-.11,.76-.15,.93,.09,.07,.1,.21,.1,.28,0,.15-.18,.45-.14,.64-.09,.65,.18,.9,1.56,1.02,2.16l.06,.29,.04,.13c.1,.2,.4,.35,.56,.13l.11-.17,.16-.29c.47-.89,.5-.99,.75-1.51l.56-1.16,.17,.08-.56,1.16c-.25,.52-.28,.62-.76,1.51l-.16,.29-.12,.19c-.24,.33-.71,.17-.88-.16l-.05-.18-.06-.3c-.1-.52-.35-1.87-.88-2.01-.11-.03-.36-.08-.45,.03-.15,.18-.44,.18-.58-.02-.08-.12-.23-.14-.73-.02-.42,.1-.63,.45-.67,.85,.31-.24,.74-.41,1.07-.2,.27,.17,.22,.42,.08,.61-.07,.1-.05,.31,.27,.46l.16,.07,.11,.03,.14,.09c.16,.13,.84,.94,.94,1.25,.1,.36-.25,.55-.54,.49-.08-.02-.17-.05-.32-.07-.3-.05-.7-.05-1.19-.05-.43,0-2.12,.1-1.88,.86l.04,.13c0,.11-.02,.14-.05,.16-.57,.58-.19,1.41-.09,1.58l.07-.26c.05-.2,.12-.45,.23-.61,.2-.28,.38-.21,.62-.09,.09,.04,1.39-.09,1.9-.37,.34-.19,.88-.45,1.18-.63,.08-.04,.14-.08,.19-.09,.12,0,.14,.01,.16,.03,.09,.09,.14,.13,.19,.16l.12,.1c.04,.08,.04,.11,.03,.14-.06,.12-.11,.15-.14,.18l-.12,.09c-.54,.44-1.08,1.38-1.37,2.05-.24,.56,.14,1.28,.37,1.33,.22,.04,.25,0,.44,.14,.26,.2,.74,.14,1.03,.04-.21-.04-.51-.39-.38-.8,.03-.1,.15-.36,.3-.74,.15-.36,.11-.68,.09-1.06-.02-.26,0-.97,.48-.88l.1,.03c.3,.11,.67,.04,.89-.2,.1-.12,.14-.15,.18-.17h.15c.12,.04,.26,.18,.32,.29l.16,.27c.15,.24,1.11,.71,1.87,.56,.34-.06,.63-.08,.84,.17,.17,.19,.23,.43,.24,.72h0Z" style="fill: #1d1d1b;"/>
  <path d="M25.23,52.58s-.9-.87-1.52,.43" style="fill: #ffed00;"/>
  <path d="M25.17,52.65s-.05-.05-.14-.1c-.54-.35-.95-.08-1.23,.5l-.17-.08c.33-.69,.86-1,1.5-.58,.1,.07,.17,.13,.17,.13l-.13,.14h0Z" style="fill: #1d1d1b;"/>
  <path d="M19.18,54.83s-.19-.12-.41-.05c-.22,.07-.57,.21-.6,.79" style="fill: #ffed00;"/>
  <path d="M19.13,54.91l-.1-.04c-.06-.02-.15-.03-.24,0-.21,.06-.51,.18-.53,.7h-.19c.03-.65,.43-.81,.67-.88,.13-.04,.26-.03,.34,0l.11,.04,.04,.02-.1,.16h0Z" style="fill: #1d1d1b;"/>
  <path d="M15.38,52.46s.48-.85-.19-.95c-.24-.04-.59,.21-.59,.21" style="fill: #ffed00;"/>
  <path d="M15.3,52.42c.04-.08,.38-.73-.12-.81-.19-.03-.51,.19-.52,.2l-.11-.15s.09-.07,.22-.13c.12-.06,.29-.12,.44-.1,.54,.08,.47,.59,.32,.94l-.07,.14-.17-.09h0Z" style="fill: #1d1d1b;"/>
  <path d="M17.43,47.21s.31,.33,.02,.79c-.13,.22-.38,.2-.45,.2" style="fill: #ffed00;"/>
  <path d="M17.5,47.14l.05,.07c.22,.35,.1,.95-.33,1.06l-.14,.02h-.09v-.19h.18c.3-.09,.37-.55,.21-.79l-.03-.04,.14-.13h0Z" style="fill: #1d1d1b;"/>
  <path d="M27.16,64.46c-.08,0-.43-.21-.67-.39-.24-.17-.14-.27-.12-.62,.02-.35-.03-.34-.18-.32-.14,.02-.54,.41-.73,.31-.2-.11-.08-.15-.27-.25-.19-.09-.59,.25-.75,.4-.17,.15-.39,.06-.39,.06-.3-.03,0-.38,.09-.82,.09-.44,.67-.9,1.2-1.39,.53-.49,.59-.8,.62-1.21,.04-.41-.03-.4-.27-.26-.24,.14-.35,.32-.56,.91-.2,.59-.75,.66-1.66,.78-.92,.12-1.9,.09-2.07,.3-.18,.22-.13,.25-.38,.25s-.35-.29-.44-.64c-.09-.36,.2-.93,.82-1.37,.62-.44,1.52-.03,2.19-.12,.67-.09,.64-.32,.99-.71,.35-.39,1.05-.75,1.31-1.18,.26-.44,.14-.79,.1-1.17-.04-.38,0-.24-.34,.09-.34,.33-.15,.5-.96,1.52-.81,1.02-1.69,.82-2.28,.58-.58-.23-.62-.67-1.81-1.14-1.19-.47-1.84,.18-2.53,.74-.69,.56-1.21,.13-1.54-.04-.33-.17-.19-.21,0-.27,.19-.06,.3,.06,.68,0,.38-.06,.33-.44,.76-1.14,.43-.7,.88-.9,1.96-1.23,1.08-.32,2.57,1.25,4.38,.6,.94-.34,1.38-1.89,1.59-3.67,.22-1.78-.6-7.94-.6-8.35s-.15-1.46-.15-1.46c0,0-.14,.53-.21,.65-.07,.13-.16,.84-.4,1.48-.23,.64-1.38,1.97-1.38,1.97,0,0-1.41,.68-1.65-.75-.31-1.72,.06-6.17,.77-8.45,.21-.66,.11-3.21,.11-3.21l-.02-1.49s-.2,.38-.33,.47c-.11,.07-.32,.03-.39-.06-.06-.07-.21-.39-.21-.39,0,0-.02,.78-.08,1.76-.06,1.06-.23,3.44-.34,3.86-.11,.42-.59,.77-.96,.8-.32,.03-.63-.04-.78-.3-.13-.23-.09-.37-.06-.5,.03-.13,.08-.08,.2-.12,.11-.04,.21-.16,.28-.64,.05-.37-.16-4.58-.16-4.58,0,0-.16,.34-.22,.4-.07,.07-.3,.06-.36,0-.08-.08-.23-.38-.23-.38,0,0-.22,8.07-.43,10-.21,1.93-1.14,2.1-1.49,2.18-.35,.08-.78-.05-1.08-.29-.3-.24-.26-.44-.26-.66s.16-.08,.26-.08,.41-.3,.6-.65c.19-.35,.22-1.01,.25-1.33,.03-.32-.09-9.76-.09-9.76,0,0,0-.05-.13,.28-.11,.28-.41,.24-.54,.09-.16-.17-.48-.51-.48-.51,0,0-.02,4.37-.02,5.17s-.24,6.13-.38,8.03c-.14,1.9-.36,3.18-.86,4.58-.42,1.17-1.73,1.2-2.12,.98-.39-.22-.57-.74-.57-1.06s.09-.26,.22-.26,.25,.03,.51-.09c.26-.11,.15-.24,.44-1.11,.3-.88,.25-11.46,.25-11.46l-.03-5.35s-.08,.22-.14,.33c-.12,.2-.4,.2-.54,.05-.2-.2-.17-.51-.17-.51,0,0-.11,4.98-.6,7.88-.29,1.73-1.03,4.38-1.96,4.94-.65,.39-1.19,.29-1.63,.08-.44-.21-.54-.56-.73-.87-.08-.13,.06-.38,.27-.52,.21-.15,.14,.12,.33,.12s.34-.06,.57-.41c.24-.35,.46-1.52,.67-2.56,.21-1.05,.66-7.25,.66-7.88,0-1.1,0-1.71,0-1.96,0,0-.14,.22-.23,.29-.18,.14-.48,.04-.61-.12-.09-.11-.19-.4-.19-.4v.32c0,.44-.24,5.43-1.25,6.71-.79,1.01-1.6,.93-2.12,.61-.52-.32-.55-.7-.61-1.02-.05-.32-.02-.2,.05-.38,.08-.17,.17,.06,.32,.15,.15,.09,.45-.15,.7-.52,.25-.38,.61-3.18,.7-4.32,.09-1.14,.18-4.46,.26-5.25,.09-.79,.23-1.7,.26-2.03,.03-.32-.09-.13-.35,.1-.26,.23-.47,.1-.53-.09-.09-.28,.03-.37-.08-.4-.11-.03-.56,1.94-.73,2.37-.17,.43-.53,.96-.98,1.25-.46,.29-.77,.25-1.3,.06-.53-.19-.75-.88-.75-1.2s0-.54,.32-.59c.32-.05,.18,0,.43,0s.59-.73,.77-1.15c.17-.42,.23-2.13,.26-2.99,.03-.86,.09-2.19,.27-3.18,.18-.99,3.48-8.24,3.48-8.24,0,0-.25,.05-.4,.15-.15,.1-.57,.3-1.01,.47-.44,.17-1.02,.23-1.46,.06-.44-.17-.55-.53-.72-1.03-.18-.5,.18-1.07,.32-1.28,.15-.2,.26-.09,.4,0,.14,.09,0,.23,.1,.5,.1,.27,.23,.4,.87,.58,.65,.18,1.36-.08,1.93-.41,.56-.33,1.1-1.08,.98-1.58-.12-.5-.7-.73-1.06-.95s-.68-.72-.72-1.23c-.05-.51-.11-.9-.43-1.15-.31-.25-.56-.08-.97,.08-.41,.16-.68,.27-1.14,.24-.46-.02-.76-.48-1.04-.94-.28-.47-.3-.63-.18-.73,.12-.1,.11-.02,.23,.03,.12,.05,.5,.68,1.05,.8,.55,.12,.98-.5,1.81-.8,.83-.3,1.44,.5,1.66,.9,.22,.4,.15,1.38,.35,1.73,.21,.35,.2,.35,.78,.67,.58,.32,1.02,.35,1.34,.26,.32-.08,.29-.2,.52-.55,.23-.35,1.18-.86,1.63-1.14,.45-.27,.85-.2,1.38-.15,.52,.05,.67,.61,.79,1.28s-.14,1.69-.41,2.42c-.27,.73-.55,1.66-.61,2.59-.06,.93,.61,2.16,.93,2.57,.32,.41,.65,.6,1.25,.58,.61-.02,.79-.17,1.29-.25,.5-.08,1.2,.3,1.38,.43,.19,.13,.48,.62,.83,1.15,.35,.53,.09,1.33-.23,1.9-.32,.57-.62,.9-.76,1.15-.13,.25-.06,.32,.11,.47,.17,.15,.27,.05,.51,.08,.23,.03,.2,.12,.15,.35-.05,.23-.28,.26-.65,.37-.37,.1-.87,0-1.25-.28-.38-.28-.45-.7-.45-1.14s.37-1.08,.69-1.61c.32-.52,.16-.73,.03-1.14s-.55-.27-1.22-.22c-.67,.05-.96-.19-1.74-.6-.78-.41-.82-1.14-1.06-1.72-.23-.58,.03-.73-.12-.82-.14-.09-.26,.58-.37,.76-.11,.18-.35,.3-.53,.55-.18,.25-.32,.65-.32,.95s.03,1.3,.03,1.68,.15,.53,.4,.75c.25,.22,.1,.53,.19,.91s.14,.31,.54,.58c.4,.27,.32,.73,.51,.99,.19,.26,.34,.2,.69,.36,.35,.16,.6,.37,.95,.68,.35,.3,.65,.25,1.05,.25s1.2,.29,2.38,.18c1.18-.11,1.01,0,1.44,0s.22,0,.5,.1c.28,.1,.33,.37,.63,.4,.3,.02,.47,.15,.9,.05,.42-.1,.8-.4,1-.77,.2-.38,.32-.78,.55-.95,.22-.18,.52-.35,.2-.43-.33-.08-.4-.13-.63,.07-.22,.2-.35,.35-.4,.23-.05-.13-.2-.68,.2-1.05,.4-.38,1.68-.98,2.25-1.58,.58-.6,.9-1.15,.95-1.55,.05-.4,.2-.7-.08-.73-.28-.02-.35-.2-.5,.03-.15,.23-.3,.35-.25,.08,.05-.28,.15-.78,.73-1,.58-.22,.68-.1,.86-.5,.19-.4,.21-.52,.19-.69-.02-.17-.21-1.34-.85-1.38-.4-.03-.85-.05-1.35-.03-.5,.03-.8,.11-1.17,.29-.38,.17-.81,.42-1.09,.62-.28,.2-.4,.24-.54,.22-.15-.03-.27-.11,.03-.24,.3-.13,.69-.55,1.01-.8,.33-.25,.75-.48,1.13-.53,.38-.05,1.4-.14,1.78-.13,.93,.02,1.26-.87,1.07-.97-1.89-.99-1.89-1.01-3.9-2.03-.2-.11-.7-.4-.88-.45-.18-.05-.18-.23-.08-.27,.1-.05,.23-.03,.23-.03,0,0,.88-1.14,1.61-1.93,.66-.72,1.06-1.06,1.96-1.42,.66-.27,.77-.22,1.08-.3,.3-.09,.56-.3,.82-.3s.24-.22,.66,.05c.42,.27,1,.55,1.2,.53,.2-.03,.54-.16,.64-.13,.1,.03,.2,.03,.13,.23-.08,.2-.4,.44-.4,.44,0,0-.15,.26-.02,.29,.12,.03,.35,.22,.75,.27,.4,.05,.7,.05,.95-.05,.25-.1,.55-.28,.55-.28,0,0,.17,.05,.17,.38s.15,.58-.26,.82c-.41,.25-.59,.28-.76,.4-.18,.12-.23,.16-.09,.3,.15,.14,.18,.33,.55,.43,.38,.1,.95,.52,.98,.67,.02,.15,.12,.26,.3,.26s.46,0,.62-.06c.16-.05,.4-.18,.61-.03,.21,.15,.5,.55,.68,.88s.35,.41,.52,.47c.18,.06,.21,.06-.02,.23-.24,.18-.3,.29-.68,.15-.38-.15-.53-.23-.73-.32-.2-.09-.3-.08-.3,.15v1.02c0,.26-.06,.47-.14,.61-.08,.15-.29,.2-.29,.2,0,0-.13,.45,0,.94,.13,.49,.41,1.04,.43,1.33,.02,.29,.18,.73,.12,1.17-.05,.44-.06,.58-.18,.88-.12,.3-.41,.35-.41,.35,0,0-.06,.22-.03,.58,.03,.35,.02,1.28-.03,1.58-.05,.3,.02,.73-.2,.83-.22,.1-.35,.18-.35,.18,0,0,.12,1.16,.12,1.34s.02,.28-.05,.41c-.08,.13-.45,.35-.45,.35l.14,.57s.19-.14,.44-.28c.25-.14,.29-.14,.73-.14s.27-.11,1.44,0c1.18,.11,1.98-.18,2.38-.18s.7,.05,1.06-.25c.35-.3,.6-.52,.95-.68,.35-.16,.5-.1,.69-.36,.19-.26,.11-.72,.51-.99,.4-.27,.45-.2,.54-.58s-.06-.69,.19-.91c.25-.23,.4-.37,.4-.75s.03-1.38,.03-1.68-.14-.7-.32-.95c-.18-.25-.42-.37-.53-.55-.11-.18-.23-.85-.38-.76-.15,.09,.12,.23-.12,.82-.23,.58-.28,1.31-1.06,1.72-.78,.41-1.07,.65-1.74,.6-.67-.05-1.09-.19-1.23,.22-.13,.41-.29,.62,.03,1.14,.32,.52,.69,1.17,.69,1.61s-.08,.86-.45,1.14c-.38,.28-.88,.38-1.25,.28-.38-.1-.6-.13-.65-.37-.05-.23-.09-.32,.15-.35,.23-.03,.34,.07,.51-.08,.17-.15,.24-.22,.11-.47-.13-.25-.44-.58-.76-1.15-.32-.57-.58-1.38-.23-1.9,.35-.53,.64-1.02,.83-1.15,.19-.13,.89-.51,1.39-.43,.5,.08,.68,.23,1.28,.25,.61,.03,.93-.17,1.26-.58,.32-.41,.98-1.64,.93-2.57-.06-.93-.34-1.86-.61-2.59-.27-.73-.52-1.75-.41-2.42,.12-.67,.26-1.23,.79-1.28,.52-.05,.93-.13,1.38,.15,.45,.28,1.39,.79,1.63,1.14,.23,.35,.2,.47,.52,.55,.33,.08,.76,.06,1.34-.26,.58-.32,.57-.32,.78-.67,.21-.35,.13-1.33,.35-1.73,.22-.4,.83-1.2,1.66-.9,.83,.3,1.26,.91,1.81,.8,.55-.12,.92-.75,1.05-.8,.13-.05,.12-.12,.23-.03,.12,.1,.1,.27-.18,.73-.28,.47-.58,.92-1.04,.94-.46,.02-.73-.08-1.14-.24-.41-.16-.66-.33-.97-.08-.31,.25-.38,.64-.42,1.15-.05,.51-.37,1.01-.73,1.23s-.94,.45-1.06,.95c-.12,.5,.42,1.25,.98,1.58,.56,.33,1.28,.59,1.93,.41,.65-.18,.78-.31,.88-.58,.1-.27-.04-.41,.1-.5,.14-.09,.26-.2,.4,0,.15,.2,.5,.77,.32,1.28-.17,.5-.28,.86-.72,1.03-.44,.17-1.02,.11-1.46-.06-.44-.17-.86-.36-1.01-.47-.15-.1-.4-.15-.4-.15,0,0,3.29,7.25,3.48,8.24,.18,.99,.24,2.32,.27,3.18,.03,.86,.09,2.56,.26,2.99,.18,.43,.52,1.15,.77,1.15s.11-.05,.43,0c.32,.05,.32,.27,.32,.59s-.22,1-.75,1.2c-.53,.19-.84,.23-1.3-.06-.46-.29-.82-.82-.98-1.25-.17-.43-.23-1.05-.35-1.35-.12-.3-.27-1.05-.38-1.02-.11,.03,.05,.26-.13,.49-.18,.23-.46,.2-.58,0-.19-.3-.28-.43-.25-.1,.03,.33,.18,1.24,.26,2.03,.09,.79,.17,4.11,.26,5.25,.09,1.14,.45,3.94,.7,4.32,.25,.38,.55,.61,.7,.52,.15-.09,.24-.32,.32-.15,.08,.18,.11,.06,.05,.38-.05,.32-.09,.7-.61,1.02-.52,.32-1.33,.4-2.12-.61-1.01-1.28-1.25-6.27-1.25-6.71v-.32s-.1,.3-.19,.4c-.13,.16-.43,.27-.61,.12-.09-.07-.23-.3-.23-.29,0,.25-.01,.86-.01,1.96,0,.63,.45,6.83,.66,7.88,.21,1.05,.44,2.21,.68,2.56,.24,.35,.39,.41,.58,.41s.11-.26,.32-.12c.21,.15,.35,.4,.27,.52-.19,.31-.29,.66-.73,.87-.44,.21-.99,.31-1.63-.08-.93-.57-1.67-3.21-1.96-4.94-.49-2.91-.6-7.88-.6-7.88,0,0,.03,.32-.17,.51-.15,.15-.42,.15-.54-.05-.06-.11-.14-.33-.14-.33l-.02,5.35s-.05,10.58,.25,11.46c.3,.88,.18,1,.44,1.11,.26,.11,.37,.09,.51,.09s.22-.06,.22,.26-.18,.84-.57,1.06c-.39,.22-1.7,.19-2.12-.98-.51-1.4-.72-2.68-.86-4.58-.14-1.9-.38-7.23-.38-8.03s-.02-5.17-.02-5.17c0,0-.32,.34-.48,.51-.13,.14-.42,.19-.54-.09-.13-.33-.13-.28-.13-.28,0,0-.12,9.44-.09,9.76,.03,.32,.05,.98,.25,1.33,.19,.35,.5,.65,.6,.65s.26-.15,.26,.08,.04,.42-.26,.66c-.3,.24-.73,.37-1.08,.29-.34-.08-1.28-.25-1.49-2.18-.21-1.93-.43-10-.43-10,0,0-.14,.3-.22,.38-.06,.06-.29,.07-.36,0-.06-.06-.22-.4-.22-.4,0,0-.2,4.21-.15,4.58,.06,.47,.16,.6,.28,.64,.11,.04,.16,0,.2,.12,.03,.13,.07,.28-.06,.5-.15,.26-.46,.33-.78,.3-.37-.04-.85-.38-.96-.8-.11-.42-.28-2.8-.34-3.86-.06-.98-.08-1.76-.08-1.76,0,0-.15,.31-.21,.39-.06,.08-.27,.13-.39,.06-.13-.08-.33-.47-.33-.47l-.02,1.49s-.14,2.56,.11,3.21c.75,1.97,.94,6.75,.81,8.39-.22,1.57-1.62,.82-1.62,.82,0,0-1.22-1.35-1.46-1.99-.23-.64-.33-1.35-.4-1.48-.07-.13-.21-.65-.21-.65,0,0-.15,1.05-.15,1.46s-.81,6.57-.6,8.35c.22,1.78,.65,3.32,1.59,3.67,1.81,.65,3.3-.92,4.38-.6,1.08,.32,1.53,.53,1.96,1.23,.43,.7,.38,1.08,.76,1.14,.38,.06,.49-.06,.68,0,.19,.06,.33,.1,0,.27-.33,.17-.85,.6-1.54,.04-.69-.56-1.34-1.21-2.53-.74-1.18,.47-1.22,.9-1.81,1.14-.59,.23-1.47,.44-2.28-.58-.81-1.02-.62-1.19-.96-1.52-.34-.33-.3-.47-.34-.09-.04,.38-.16,.73,.1,1.17,.26,.44,.96,.79,1.31,1.18,.35,.39,.32,.62,.99,.71,.67,.09,1.57-.32,2.19,.12,.62,.44,.91,1.01,.82,1.37-.09,.36-.19,.64-.44,.64s-.2-.04-.38-.25c-.18-.22-1.16-.19-2.07-.3-.92-.12-1.46-.19-1.66-.78-.2-.59-.31-.77-.55-.91-.24-.14-.31-.15-.28,.26,.04,.41,.1,.72,.62,1.21,.53,.49,1.11,.95,1.2,1.39,.09,.44,.33,.81,.03,.84,0,0-.18,.08-.32-.03-.05-.03-.25-.23-.48-.39-.21-.14-.37,.01-.54,.2-.21,.23-.5-.32-.78-.32-.2,0-.18,.22-.15,.32,.06,.2,.1,.43-.09,.62-.17,.17-.7,.38-.7,.38h0Z" style="fill: #e30613;"/>
  <path d="M21.87,15.07s.59-.41,.86-.53c1.34-.65,3.95-.84,4.22-.89,1.04-.18,1.31-.97,1.38-1.43,.06-.46-.08-1.28-.79-1.65-1.11-.58-1.74-.66-2.28-.94-.02,0,.46,0,.48-.26,.03-.41-.59-.64-.89-.36-.21,.2,0,.41,0,.4-.34-.18-.76-.39-1.34-.69-.24-.12-.98-.58-1.07-.55-3.69,1.13-3.29,3.35-3.09,4.04,.46,1.64,2.16,1.43,2.22,1.4,.06-.03-.05-.06-.33-.33-.58-.57-.4-1.38-.04-1.5,.37-.13,.48-.09,1,0,.52,.09,.73,.06,1.06-.03,.33-.09,.62-.27,.94-.39,.31-.13,.5-.25,.99-.32,.52-.07,1.11-.04,1.4,0,.81,.12,1.17,1.06,.41,1.5-.42,.25-.87,.41-1.87,.64-1,.23-1.54,.26-2.22,.66-.85,.51-1.03,1.26-1.03,1.26h0Z" style="fill: #ffed00;"/>
  <path d="M22.07,14.82l.08-.05c.18-.12,.4-.26,.54-.32,.68-.33,1.78-.55,2.73-.69,.95-.14,1.77-.21,1.9-.23l.03,.19c-.14,.02-.96,.09-1.91,.23-.95,.14-2.02,.35-2.67,.67-.13,.06-.34,.19-.52,.31l-.53,.36s.07-.29,.11-.38c.34-.88,1.17-1.37,2.05-1.59,1.02-.26,2.14-.35,3.07-.89,.64-.37,.39-1.21-.38-1.32-.56-.08-1.38-.07-1.91,.13l-.43,.18c-.8,.32-1.08,.6-2.05,.43-.38-.07-.57-.13-.95,0-.26,.09-.48,.79,.07,1.35,.13,.13,.23,.21,.28,.25l.07,.07c.05,.09-.03,.15-.06,.16-.09,.03-1.86,.26-2.35-1.46-.2-.72-.57-3.06,3.19-4.21,0,0-.04,.1,.08,.17-3.63,1.11-3.28,3.32-3.1,3.98,.36,1.29,1.53,1.37,1.94,1.35l-.21-.19c-.66-.66-.52-1.78,.47-1.75,.61,.02,.88,.24,1.59,.05,.33-.09,.62-.26,.93-.39l.43-.18c.57-.22,1.42-.23,2.01-.14,.86,.12,1.31,1.17,.45,1.67-.95,.55-2.08,.65-3.12,.91-.71,.18-1.37,.52-1.77,1.17l-.08,.14h0Z" style="fill: #1d1d1b;"/>
  <path d="M33.56,24.77s3.78,0,8.24-2.56c4.98-2.86,6.44-7.18,6.56-7.4,.09,.18,1.26,2.86,1.7,4.19-.21,.18-2.92,2.38-6.31,3.74-6.63,2.67-10.21,2.53-10.21,2.53v-.5h0Z" style="fill: #ffed00;"/>
  <path d="M21.26,24.85s-4.26-.02-8.72-2.59c-4.98-2.86-6.45-7.18-6.57-7.4-.09,.18-1.26,2.85-1.71,4.17,.21,.18,2.92,2.39,6.32,3.76,6.64,2.67,10.49,2.57,10.49,2.57l.2-.51h0Z" style="fill: #ffed00;"/>
  <path d="M25.42,9.69s.4-.04,.37-.4c-.04-.39-.73-.67-1-.32-.19,.24,.02,.41,0,.41-.03,0,.62,.32,.62,.32h0Z" style="fill: #1d1d1b;"/>
</svg>